<?xml version="1.0" encoding="UTF-8"?>
<svg version="1.1" xmlns="http://www.w3.org/2000/svg" width="500" height="500">
<path d="M0 0 C165 0 330 0 500 0 C500 165 500 330 500 500 C335 500 170 500 0 500 C0 335 0 170 0 0 Z " fill="#427DCB" transform="translate(0,0)"/>
<path d="M0 0 C8.58 0 17.16 0 26 0 C26 28.71 26 57.42 26 87 C50.09 87 74.18 87 99 87 C99 97.56 99 108.12 99 119 C74.91 119 50.82 119 26 119 C26 210.41 26 301.82 26 396 C-3.88107159 396 -3.88107159 396 -15.8828125 395.78125 C-17.85856766 395.74795593 -17.85856766 395.74795593 -19.87423706 395.71398926 C-23.27038064 395.65673587 -26.66647365 395.59692085 -30.06256104 395.53643799 C-33.57032496 395.47446483 -37.07813311 395.41509923 -40.5859375 395.35546875 C-47.39066858 395.23943092 -54.19534949 395.12066806 -61 395 C-61 392.03 -61 389.06 -61 386 C-55.06 386 -49.12 386 -43 386 C-43.06132503 366.31024492 -43.13832047 346.62062514 -43.23571491 326.93101406 C-43.2805552 317.78743586 -43.31999656 308.64389559 -43.34643555 299.50024414 C-43.3695114 291.52454677 -43.40301518 283.54897061 -43.44870156 275.57336956 C-43.47250536 271.35587086 -43.49131779 267.13849124 -43.49761391 262.92092705 C-43.50372353 258.93915755 -43.52393109 254.95769225 -43.55427551 250.97603607 C-43.56296273 249.52621905 -43.56679804 248.0763621 -43.56500816 246.62652016 C-43.55445846 234.1212858 -44.51681752 221.05897973 -50.5 209.8125 C-51.01167725 208.82552124 -51.01167725 208.82552124 -51.53369141 207.81860352 C-60.70297461 191.01775563 -75.60915247 182.32589034 -93.08203125 175.859375 C-107.48569574 171.94709583 -126.68427658 173.40061386 -140 180 C-141.05832031 180.51949219 -142.11664063 181.03898438 -143.20703125 181.57421875 C-158.91882709 190.05265953 -169.85424616 203.28511535 -176 220 C-178.29111845 228.11717057 -178.30727435 236.06734599 -178.31884766 244.43383789 C-178.32815945 245.98194902 -178.33832997 247.53005518 -178.34928894 249.07815552 C-178.37646202 253.25723087 -178.39170047 257.43627275 -178.40471697 261.61541295 C-178.42040336 265.99164853 -178.44717588 270.36781633 -178.4727478 274.7440033 C-178.5194384 283.02038951 -178.5562294 291.29678862 -178.58942068 299.57323879 C-178.62771093 309.00015418 -178.67710291 318.42700131 -178.72740483 327.85385907 C-178.83058005 347.23585681 -178.91949334 366.61789575 -179 386 C-173.06 386 -167.12 386 -161 386 C-161 388.97 -161 391.94 -161 395 C-175.52 395 -190.04 395 -205 395 C-205 392.03 -205 389.06 -205 386 C-199.39 386 -193.78 386 -188 386 C-188.00888245 383.97870468 -188.01776489 381.95740936 -188.0269165 379.87486267 C-188.10883723 360.79272904 -188.16826741 341.7106187 -188.20724869 322.62834835 C-188.22782274 312.81881173 -188.25584408 303.00940463 -188.30175781 293.19995117 C-188.34178418 284.64421053 -188.36747023 276.08856375 -188.37635398 267.53273207 C-188.38154213 263.00773047 -188.39362703 258.48299727 -188.42292023 253.9580822 C-188.45033984 249.68744016 -188.4583922 245.41717366 -188.45243073 241.14645195 C-188.45351923 239.59016367 -188.46131361 238.03386108 -188.4768219 236.47764969 C-188.65684763 217.45823422 -183.72707211 200.56542697 -171 186 C-170.50242188 185.40832031 -170.00484375 184.81664062 -169.4921875 184.20703125 C-155.81807593 169.19299418 -133.69548339 161.37606146 -114 159 C-111.38702321 158.8883054 -108.80032217 158.8131473 -106.1875 158.796875 C-105.45611816 158.79117493 -104.72473633 158.78547485 -103.97119141 158.77960205 C-102.42823709 158.7702068 -100.88526321 158.76364002 -99.34228516 158.75976562 C-97.03380151 158.75014093 -94.72624115 158.71909988 -92.41796875 158.6875 C-79.34648135 158.59313084 -67.16255731 160.52805813 -54.75 164.8125 C-53.99259521 165.07184326 -53.23519043 165.33118652 -52.45483398 165.59838867 C-35.06905156 171.74011538 -20.286259 183.12050297 -11.75 199.625 C-11.43264893 200.22707275 -11.11529785 200.82914551 -10.78833008 201.44946289 C-4.77785416 213.75632698 -3.4108488 226.19966096 -3.54589844 239.66577148 C-3.5470301 241.27387463 -3.54638686 242.88197983 -3.54412842 244.49008179 C-3.54299275 248.80535835 -3.56631331 253.12017935 -3.59442425 257.43535113 C-3.6196319 261.96363616 -3.62179502 266.49193457 -3.62652588 271.02027893 C-3.63889927 279.57283492 -3.67164359 288.12518347 -3.71192384 296.6776486 C-3.75681824 306.42385175 -3.77867278 316.17006543 -3.79870558 325.91634643 C-3.840382 345.9443462 -3.910623 365.97215997 -4 386 C-2.68 386 -1.36 386 0 386 C0 297.89 0 209.78 0 119 C-67.98 119 -135.96 119 -206 119 C-206 108.77 -206 98.54 -206 88 C-138.02 88 -70.04 88 0 88 C0 58.96 0 29.92 0 0 Z " fill="#FCFDFE" transform="translate(318,73)"/>
<path d="M0 0 C7.95313861 4.64416853 13.21234729 11.46516688 16.140625 20.25 C17.27430597 31.83076632 15.62098122 39.88952157 8.53515625 49.40625 C3.23067422 55.35331774 -3.11775059 58.06002897 -11 58.62890625 C-18.55210843 58.93984616 -25.64304654 59.05013853 -31.859375 54.25 C-32.46910156 53.81429687 -33.07882813 53.37859375 -33.70703125 52.9296875 C-40.00135158 48.0385596 -43.70706083 41.88265597 -45.859375 34.25 C-46.74446657 26.0474653 -46.08960528 19.36575159 -41.859375 12.25 C-41.53195313 11.63640625 -41.20453125 11.0228125 -40.8671875 10.390625 C-32.58839798 -3.26635624 -13.78643751 -6.57366557 0 0 Z " fill="#FDFDFE" transform="translate(107.859375,203.75)"/>
</svg>
